<svg width="44" height="44" viewBox="0 0 44 44" fill="none" xmlns="http://www.w3.org/2000/svg">
<circle cx="22" cy="22" r="22" fill="#3A9BDC"/>
<path d="M14.5714 34.4H27.4286V31.8H24.8571V22.7H22.2857V20.1H27.4286V17.5H14.5714V20.1H17.1429V29.2H19.7143V31.8H14.5714V34.4ZM14.5714 37C13.8643 37 13.2589 36.7454 12.7554 36.2362C12.2518 35.7271 12 35.115 12 34.4V31.8C12 31.085 12.2518 30.4729 12.7554 29.9638C13.2589 29.4546 13.8643 29.2 14.5714 29.2V22.7C13.8643 22.7 13.2589 22.4454 12.7554 21.9362C12.2518 21.4271 12 20.815 12 20.1V17.5C12 16.785 12.2518 16.1729 12.7554 15.6638C13.2589 15.1546 13.8643 14.9 14.5714 14.9H18.4286V13.6H17.1429V11H24.8571V13.6H23.5714V14.9H27.4286C28.1357 14.9 28.7411 15.1546 29.2446 15.6638C29.7482 16.1729 30 16.785 30 17.5V20.1C30 20.815 29.7482 21.4271 29.2446 21.9362C28.7411 22.4454 28.1357 22.7 27.4286 22.7V29.2C28.1357 29.2 28.7411 29.4546 29.2446 29.9638C29.7482 30.4729 30 31.085 30 31.8V34.4C30 35.115 29.7482 35.7271 29.2446 36.2362C28.7411 36.7454 28.1357 37 27.4286 37H14.5714Z" fill="white"/>
<path d="M27 9H24V8H27V5H28V8H31V9H28V12H27V9Z" fill="white" stroke="white"/>
</svg>
