<svg width="16" height="24" viewBox="18 12 16 24" fill="none" xmlns="http://www.w3.org/2000/svg">
<path d="M18.5 16.75C18.5 15.35 18.5 14.65 18.7725 14.115C19.0122 13.6446 19.3946 13.2622 19.865 13.0225C20.4 12.75 21.1 12.75 22.5 12.75H29.5C30.9 12.75 31.6 12.75 32.135 13.0225C32.6054 13.2622 32.9878 13.6446 33.2275 14.115C33.5 14.65 33.5 15.35 33.5 16.75V33.3812C33.5 33.9887 33.5 34.2925 33.3738 34.4588C33.3192 34.5311 33.2496 34.5906 33.1697 34.6334C33.0899 34.6761 33.0017 34.701 32.9112 34.7063C32.7025 34.7188 32.45 34.55 31.945 34.2137L26 30.25L20.055 34.2125C19.55 34.55 19.2975 34.7188 19.0875 34.7063C18.9973 34.7008 18.9093 34.6758 18.8297 34.6331C18.7501 34.5904 18.6807 34.5309 18.6262 34.4588C18.5 34.2925 18.5 33.9887 18.5 33.3812V16.75Z" fill="#313131" stroke="#313131" stroke-width="1.5" stroke-linecap="round" stroke-linejoin="round"/>
</svg>
