<svg width="24" height="24" viewBox="0 0 24 24" fill="none" xmlns="http://www.w3.org/2000/svg">
<path d="M8.85 16.825L12 14.925L15.15 16.85L14.325 13.25L17.1 10.85L13.45 10.525L12 7.125L10.55 10.5L6.9 10.825L9.675 13.25L8.85 16.825ZM5.825 21L7.45 13.975L2 9.25L9.2 8.625L12 2L14.8 8.625L22 9.25L16.55 13.975L18.175 21L12 17.275L5.825 21Z" fill="#F9E000"/>
<rect x="7" y="10" width="10" height="3" fill="#F9E000"/>
<rect x="13.4653" y="6.48975" width="10" height="3" transform="rotate(89.6026 13.4653 6.48975)" fill="#F9E000"/>
<rect x="15.9368" y="12" width="5.66068" height="2.93689" transform="rotate(89.6026 15.9368 12)" fill="#F9E000"/>
<rect x="10.9368" y="12" width="5.66068" height="2.93689" transform="rotate(89.6026 10.9368 12)" fill="#F9E000"/>
</svg>
