<svg width="44" height="44" viewBox="0 0 44 44" fill="none" xmlns="http://www.w3.org/2000/svg">
<circle cx="22" cy="22" r="22" fill="#3A9BDC"/>
<path d="M20.2857 26.7143C20.2857 25.0574 18.9426 23.7143 17.2857 23.7143H11.7143C10.7675 23.7143 10 22.9468 10 22C10 21.0532 10.7675 20.2857 11.7143 20.2857H17.2857C18.9426 20.2857 20.2857 18.9426 20.2857 17.2857V11.7143C20.2857 10.7675 21.0532 10 22 10C22.9468 10 23.7143 10.7675 23.7143 11.7143V15.1429V17.2857C23.7143 18.9426 25.0574 20.2857 26.7143 20.2857H32.2857C33.2325 20.2857 34 21.0532 34 22C34 22.9468 33.2325 23.7143 32.2857 23.7143H26.7143C25.0574 23.7143 23.7143 25.0574 23.7143 26.7143V32.2857C23.7143 33.2325 22.9468 34 22 34C21.0532 34 20.2857 33.2325 20.2857 32.2857V26.7143Z" fill="white"/>
</svg>
